<svg xmlns="http://www.w3.org/2000/svg" height="100" width="100">
  <path d="M21.3335486,0 C16.190685,0 11.3279733,1.16713678 7,3.24053935 C19.4273443,7.13273442 28.4278883,18.5348833 28.4278883,32 C28.4278883,45.4645949 19.4273443,56.8667438 7,60.7584172 C11.3279733,62.8318197 16.190685,64 21.3335486,64 C39.3745821,64 54,49.6729656 54,32 C54,14.3265126 39.3745821,0 21.3335486,0 L21.3335486,0 Z M21.3335486,58.7825803 C21.293603,58.7825803 21.2547226,58.7799716 21.2153096,58.7794499 C29.1298657,53.2599416 34.2865771,43.1991913 34.2865771,32 C34.2865771,21.0658536 29.3008329,10.8376241 21.214777,5.21950663 C21.2547226,5.21898489 21.293603,5.21637618 21.3335486,5.21637618 C36.4090203,5.21637618 48.6739192,17.2315719 48.6739192,32 C48.6739192,46.7673846 36.4090203,58.7825803 21.3335486,58.7825803 L21.3335486,58.7825803 Z"/>
</svg>
