<svg xmlns="http://www.w3.org/2000/svg" height="100" width="100">
  <path d="M52.5987864,17.3945625 C52.4960226,17.3945625 52.3945434,17.399375 52.2922077,17.402 C50.6214399,7.5193125 42.195666,0 32.0460296,0 C23.6450903,0 16.4259345,5.152875 13.2389726,12.53175 C5.83912383,13.076 0,19.3773125 0,27.0764375 C0,35.132125 6.39190735,41.6626875 14.2764587,41.6626875 C17.1311509,41.6626875 19.7875948,40.803875 22.017997,39.3290625 C24.9848731,41.0274375 28.4039098,42 32.0460296,42 C36.8463829,42 41.2588028,40.3134375 44.7570533,37.4955 C46.8007681,39.4760625 49.5599756,40.693625 52.5987864,40.693625 C58.8956372,40.693625 64,35.4781875 64,29.043875 C64,22.6104375 58.8956372,17.3945625 52.5987864,17.3945625 L52.5987864,17.3945625 L52.5987864,17.3945625 Z M52.5987864,36.318625 C49.0641404,36.318625 46.1315189,33.67 45.5808763,30.2150625 C42.6598157,34.678875 37.6839077,37.625 32.0460296,37.625 C28.1388649,37.625 24.5498398,36.2096875 21.7418194,33.8555 C19.9100549,35.9594375 17.2429066,37.2876875 14.2764587,37.2876875 C8.76575076,37.2876875 4.28225251,32.7070625 4.28225251,27.0764375 C4.28225251,21.445375 8.76575076,16.86475 14.2764587,16.86475 C14.9487051,16.86475 15.6046806,16.933875 16.2401033,17.0638125 C17.9750985,9.7908125 24.4016886,4.375 32.0460296,4.375 C41.0177361,4.375 48.316962,11.8330625 48.316962,21 C48.316962,21.80675 48.2578729,22.598625 48.1486863,23.3751875 C49.3685781,22.372875 50.9156012,21.7695625 52.5987864,21.7695625 C56.5243629,21.7695625 59.7181757,25.032875 59.7181757,29.043875 C59.7181757,33.0553125 56.5243629,36.318625 52.5987864,36.318625 L52.5987864,36.318625 L52.5987864,36.318625 Z"/>
</svg>
