<svg xmlns="http://www.w3.org/2000/svg" height="100" width="100">
  <path d="M52.599,17.395 C52.496,17.395 52.395,17.4 52.292,17.402 C50.621,7.52 42.195,0 32.046,0 C23.645,0 16.426,5.153 13.239,12.532 C5.839,13.076 0,19.377 0,27.076 C0,34.435 5.335,40.457 12.268,41.451 C12.438,41.494 12.616,41.519 12.8,41.519 C13.993,41.519 14.96,40.552 14.96,39.359 C14.96,38.167 13.993,37.2 12.8,37.2 L12.8,37.175 C7.987,36.444 4.282,32.195 4.282,27.076 C4.282,21.445 8.765,16.865 14.276,16.865 C14.948,16.865 15.604,16.934 16.24,17.064 C17.975,9.791 24.402,4.375 32.046,4.375 C41.018,4.375 48.317,11.833 48.317,21 C48.317,21.807 48.258,22.599 48.149,23.375 C49.37,22.373 50.917,21.77 52.599,21.77 C56.525,21.77 59.719,25.034 59.719,29.044 C59.719,31.662 58.356,33.959 56.319,35.24 C56.293,35.254 56.266,35.265 56.241,35.28 C55.208,35.876 54.973,37.247 55.57,38.28 C56.167,39.312 57.368,39.717 58.4,39.12 C58.563,39.025 58.711,38.911 58.843,38.783 C61.946,36.702 64,33.121 64,29.044 C64,22.61 58.896,17.395 52.599,17.395 L52.599,17.395 Z"/>
  <path d="M12.32,31.8 C12.32,32.927 13.233,33.84 14.36,33.84 L35.96,33.84 C37.087,33.84 38,32.927 38,31.8 C38,30.674 37.087,29.76 35.96,29.76 L14.36,29.76 C13.233,29.76 12.32,30.674 12.32,31.8 L12.32,31.8 Z"/>
  <path d="M40.76,24.96 C41.887,24.96 42.8,24.046 42.8,22.92 C42.8,21.793 41.887,20.88 40.76,20.88 L23.48,20.88 C22.353,20.88 21.44,21.793 21.44,22.92 C21.44,24.046 22.353,24.96 23.48,24.96 L40.76,24.96 L40.76,24.96 Z"/>
  <path d="M52.04,29.76 L44.84,29.76 C43.713,29.76 42.8,30.674 42.8,31.8 C42.8,32.927 43.713,33.84 44.84,33.84 L52.04,33.84 C53.167,33.84 54.08,32.927 54.08,31.8 C54.08,30.674 53.167,29.76 52.04,29.76 L52.04,29.76 Z"/>
  <path d="M49.64,38.64 L32.84,38.64 C31.714,38.64 30.8,39.553 30.8,40.68 C30.8,41.807 31.714,42.72 32.84,42.72 L49.64,42.72 C50.767,42.72 51.68,41.807 51.68,40.68 C51.68,39.553 50.767,38.64 49.64,38.64 L49.64,38.64 Z"/>
  <path d="M26,40.68 C26,39.553 25.086,38.64 23.96,38.64 L19.16,38.64 C18.034,38.64 17.12,39.553 17.12,40.68 C17.12,41.807 18.034,42.72 19.16,42.72 L23.96,42.72 C25.086,42.72 26,41.807 26,40.68 L26,40.68 Z"/>
  <path d="M41.56,47.52 L19.96,47.52 C18.833,47.52 17.92,48.433 17.92,49.56 C17.92,50.687 18.833,51.6 19.96,51.6 L41.56,51.6 C42.687,51.6 43.6,50.687 43.6,49.56 C43.6,48.433 42.687,47.52 41.56,47.52 L41.56,47.52 Z"/>
</svg>
