<svg xmlns="http://www.w3.org/2000/svg" height="100" width="100">
  <path d="M11.6000471,48.9588867 C10.8185565,49.0467415 10.0250747,49.0968462 9.21994411,49.0968462 C5.91171401,49.0968462 2.78369611,48.3284601 0,46.9646522 C7.99409,44.4048526 13.7838353,36.9049384 13.7838353,28.0484231 C13.7838353,19.1915646 7.99409,11.6919935 0,9.13185078 C2.78369611,7.76769965 5.91171401,7 9.21994411,7 C19.6044154,7 28.2237663,14.5476166 29.9234484,24.4635368 C28.791469,25.0654793 27.7259558,25.7875356 26.7440391,26.6146059 C26.0125695,17.5693401 18.4350917,10.4314836 9.21994411,10.4314836 C9.19390585,10.4314836 9.16923802,10.4331995 9.14388497,10.4335427 C14.345371,14.1285905 17.5521889,20.8566869 17.5521889,28.0484231 C17.5521889,30.308281 17.2373315,32.4960706 16.6576375,34.5500189 C13.6169848,36.706922 11.5315254,40.1188442 11.1447201,43.9875425 C10.5129495,44.5977213 9.84726074,45.1612272 9.14388497,45.6629603 C9.16923802,45.6633035 9.19424846,45.6650194 9.21994411,45.6650194 C9.85000161,45.6650194 10.4714939,45.6300148 11.0847635,45.5651532 C11.1084036,46.7405539 11.2865601,47.8775181 11.6000471,48.9588867 L11.6000471,48.9588867 Z M64,46.8369882 C64,51.8841758 59.9161037,55.9752565 54.8773568,55.9752565 C52.4458625,55.9752565 50.2380917,55.0205223 48.6028201,53.4665912 C45.8037066,55.677374 42.2731234,57 38.4321367,57 C35.5179067,57 32.7825184,56.2374481 30.4082397,54.9052129 C28.6235908,56.0617386 26.4980461,56.7357493 24.2138735,56.7357493 C17.905076,56.7357493 12.7906125,51.6127183 12.7906125,45.2936957 C12.7906125,39.254367 17.4627681,34.3115069 23.3837325,33.8849308 C25.9337694,28.0964687 31.7104956,24.0544631 38.4321367,24.0544631 C46.5536772,24.0544631 53.2955322,29.9530869 54.6323915,37.7052404 C54.714275,37.7031813 54.7951307,37.6990631 54.8773568,37.6990631 C59.9161037,37.6990631 64,41.790487 64,46.8369882 L64,46.8369882 Z M60.5739125,46.8369882 C60.5739125,43.6906895 58.0183938,41.1308899 54.8773568,41.1308899 C53.5305618,41.1308899 52.293059,41.6041388 51.3169666,42.3903703 C51.4039893,41.781221 51.4512693,41.1600604 51.4512693,40.5272315 C51.4512693,33.3365249 45.6108179,27.4862899 38.4321367,27.4862899 C32.3158853,27.4862899 27.1736705,31.7345482 25.7850772,37.439617 C25.2769885,37.3376918 24.7521119,37.2834689 24.2138735,37.2834689 C19.8044989,37.2834689 16.2167,40.8769347 16.2167,45.2936957 C16.2167,49.7104568 19.8044989,53.3039226 24.2138735,53.3039226 C26.5874669,53.3039226 28.7212342,52.2616768 30.1875997,50.6113113 C32.4344279,52.4579773 35.3058318,53.5681732 38.4321367,53.5681732 C42.9436087,53.5681732 46.925065,51.2571811 49.2619993,47.7560314 C49.7029368,50.4658018 52.0494641,52.5434298 54.8773568,52.5434298 C58.0183938,52.5434298 60.5739125,49.9836302 60.5739125,46.8369882 L60.5739125,46.8369882 Z"/>
</svg>
