<svg xmlns="http://www.w3.org/2000/svg" height="100" width="100">
  <path d="M27.7350889,46.1265486 L21.4960427,61.464668 C21.3174906,61.9036392 20.8152326,62.1157943 20.3789147,61.9359799 C19.943025,61.7561656 19.7327874,61.2499257 19.9113395,60.8109545 L26.045481,45.729836 C26.6034027,45.8837777 27.1668908,46.0157278 27.7350889,46.1265486 L27.7350889,46.1265486 Z M11.4821401,45.9756253 L7.67731101,55.3294203 C7.49875894,55.7679603 7.70899651,56.2742001 8.14488623,56.4540145 C8.58077595,56.6338288 9.08346212,56.4216738 9.2620142,55.9827026 L13.2479645,46.1843307 C12.6497936,46.1472467 12.0610428,46.0765283 11.4821401,45.9756253 L11.4821401,45.9756253 Z M40.2440105,45.0204965 L35.5344319,56.5976072 C35.3558798,57.0361472 35.5661174,57.5423871 36.0015789,57.7222014 C36.4378968,57.9020157 36.940583,57.6898607 37.1191351,57.2513207 L42.5176592,43.9795569 C41.7773318,44.3702326 41.0185925,44.7173562 40.2440105,45.0204965 L40.2440105,45.0204965 Z M48.0806053,44.4758789 L45.4160261,51.0272438 C45.237474,51.466215 45.4477116,51.9720237 45.8831731,52.151838 C46.319491,52.3316523 46.8221772,52.1194973 47.0007292,51.6809573 L49.7380995,44.9497781 C49.1746115,44.8277458 48.6218279,44.6690608 48.0806053,44.4758789 L48.0806053,44.4758789 Z M64,31.6267004 C64,37.967635 58.8960654,43.1085138 52.5987864,43.1085138 C49.5595475,43.1085138 46.8007681,41.9088892 44.7570533,39.9568041 C41.2588028,42.7346553 36.8463829,44.3961052 32.0460296,44.3961052 C28.4039098,44.3961052 24.9853013,43.4375266 22.017997,41.7644341 C19.7875948,43.2171786 17.1315791,44.0640739 14.2764587,44.0640739 C6.39190735,44.0640739 0,37.6274108 0,29.6871204 C0,22.0986968 5.83912383,15.8884186 13.2385444,15.3519941 C16.4259345,8.07921587 23.6455185,3 32.0460296,3 C42.1960942,3 50.6218681,10.4116277 52.2926359,20.1522175 C52.3949715,20.1500614 52.4960226,20.1448869 52.5987864,20.1448869 C58.8960654,20.1448869 64,25.2849033 64,31.6267004 L64,31.6267004 Z M59.7181757,31.6267004 C59.7181757,27.6733723 56.5243629,24.4569812 52.5987864,24.4569812 C50.915173,24.4569812 49.3690063,25.051619 48.1486863,26.0395198 C48.2574447,25.2736919 48.316962,24.4932028 48.316962,23.6980526 C48.316962,14.6629214 41.0177361,7.31209429 32.0460296,7.31209429 C24.402545,7.31209429 17.9755267,12.6500358 16.2401033,19.8180302 C15.6055369,19.689961 14.9487051,19.6218299 14.2764587,19.6218299 C8.76617894,19.6218299 4.28182432,24.1370238 4.28182432,29.6871204 C4.28182432,35.2372169 8.76617894,39.7519796 14.2764587,39.7519796 C17.2429066,39.7519796 19.9096267,38.4423966 21.7422476,36.3691417 C24.5502679,38.6894796 28.1388649,40.0840109 32.0460296,40.0840109 C37.6843359,40.0840109 42.6602439,37.1802466 45.5804481,32.781048 C46.1319471,36.1863089 49.0645686,38.7964196 52.5987864,38.7964196 C56.5243629,38.7964196 59.7181757,35.5800284 59.7181757,31.6267004 L59.7181757,31.6267004 Z M35.2985034,49.7167983 L36.6361453,50.6727896 L36.8682202,50.3433456 L35.832875,49.6033903 L36.7680255,49.4050339 L36.6853863,49.0100461 L35.750664,49.2084024 L36.4006449,48.1109744 L36.0559581,47.9039939 L35.2162923,49.3218105 L33.0475483,49.7814798 L33.8833604,49.0186703 L34.4224421,49.0816269 L34.4297212,49.0152206 L33.9484442,48.9587322 L34.5123604,48.4442993 L34.4674013,48.394279 L33.9043414,48.9091431 L33.8910677,48.3934166 L33.8238431,48.3947102 L33.8388295,48.9690812 L33.0132937,49.7228353 L33.6971011,47.6163772 L35.1871759,46.9285982 L35.0197566,46.5616389 L33.8666613,47.0937514 L34.1633917,46.178725 L33.7823094,46.053243 L33.4855789,46.967407 L32.8668553,45.851437 L32.5166021,46.0484997 L33.3160187,47.4904641 L32.6253604,49.6180514 L32.3851501,48.5020814 L32.7084278,48.0639726 L32.654905,48.0234389 L32.3663101,48.4141147 L32.2057417,47.6668287 L32.1406579,47.6810586 L32.3012263,48.4287758 L31.8512066,48.1825552 L31.8195211,48.2416309 L32.3200664,48.5154489 L32.5547103,49.6077024 L31.0894701,47.9630696 L31.2423312,46.3192993 L30.8432652,46.2813528 L30.7242304,47.5529894 L30.0862386,46.8367506 L29.7877955,47.1062565 L30.4266437,47.8237889 L29.1562264,47.8043845 L29.1502318,48.208859 L30.7918833,48.2334379 L32.2695408,49.8923006 L31.192662,49.5443146 L30.9605871,49.0048716 L30.8989289,49.0316066 L31.1078819,49.5167172 L30.3855381,49.2834329 L30.3649854,49.3472519 L31.0890419,49.5813986 L30.6450167,49.8543542 L30.6796995,49.911705 L31.1729656,49.6085648 L32.2391399,49.9535323 L30.0828132,50.4106143 L28.746884,49.454623 L28.5143809,49.784067 L29.5484415,50.5240224 L28.6137192,50.7223787 L28.6963584,51.1173666 L29.6310807,50.9190102 L28.9810998,52.0164382 L29.3257866,52.2234188 L30.1658806,50.8056022 L32.3303427,50.3467953 L31.4928179,51.1113296 L30.9117743,51.0457858 L30.9040671,51.1121921 L31.427306,51.1712677 L30.8638179,51.6857006 L30.9087771,51.7352897 L31.4722652,51.2204256 L31.4846824,51.7443451 L31.5519071,51.7426202 L31.5382052,51.1609187 L32.3714483,50.3994029 L31.6855,52.5118979 L30.194997,53.1996769 L30.3619881,53.5670673 L31.5163679,53.0345237 L31.2187812,53.9495501 L31.6002917,54.075032 L31.8970221,53.1604368 L32.5161739,54.2759756 L32.865999,54.0789129 L32.0670106,52.637811 L32.7521024,50.5274721 L32.9897437,51.633093 L32.6416314,52.1078546 L32.6955824,52.1475259 L33.0085837,51.7201974 L33.1691521,52.4692081 L33.2342359,52.454547 L33.0732393,51.7055362 L33.5296817,51.9565001 L33.5617954,51.8978556 L33.0548274,51.6184319 L32.8159016,50.5059116 L34.2935592,52.1647743 L34.1398417,53.8089758 L34.5389077,53.8469223 L34.6583706,52.573992 L35.2963625,53.2906621 L35.5948056,53.0211562 L34.9563856,52.3044861 L36.2255183,52.3230281 L36.2310847,51.9185537 L34.5915742,51.8948372 L33.1143448,50.2359745 L34.1895109,50.5839605 L34.4031739,51.0850259 L34.4648322,51.0578597 L34.274291,50.6111267 L34.9974911,50.8448422 L35.0180439,50.7810232 L34.2922747,50.5464453 L34.7298771,50.2773706 L34.6951943,50.2200197 L34.2083509,50.5192791 L33.1417485,50.1743115 L35.2985034,49.7167983 L35.2985034,49.7167983 Z M20.6884906,49.5055057 L21.9070978,50.37698 L22.1190481,50.076427 L21.1757622,49.4015843 L22.0282734,49.2209075 L21.9529133,48.8608476 L21.1008303,49.0410932 L21.6934348,48.0411185 L21.379577,47.85268 L20.6135587,49.1450146 L18.6353558,49.5641502 L19.3979487,48.8681782 L19.8886458,48.925529 L19.8959249,48.8647285 L19.4578943,48.8134146 L19.971285,48.3442587 L19.9301795,48.2989817 L19.4167888,48.7681376 L19.4052278,48.2981193 L19.3439978,48.2998442 L19.3568432,48.82247 L18.6036703,49.510249 L19.2275321,47.5896422 L20.5865832,46.9618013 L20.4341502,46.627614 L19.382106,47.113587 L19.6531455,46.2783344 L19.3054613,46.1640639 L19.0344219,46.9984541 L18.4705056,45.9807998 L18.1510815,46.160183 L18.879848,47.4753717 L18.2499916,49.4140893 L18.0320468,48.3968663 L18.3270645,47.9984288 L18.2782517,47.9613448 L18.0149195,48.3170925 L17.8680529,47.6357816 L17.8085355,47.6482867 L17.9554021,48.3308912 L17.5452034,48.1057999 L17.5160869,48.1601323 L17.9725294,48.4102338 L18.1866206,49.4054651 L16.8498351,47.9052875 L16.9902789,46.4068348 L16.6258957,46.372338 L16.5175655,47.5318602 L15.9356656,46.8790091 L15.6633416,47.1247985 L16.2460979,47.7789432 L15.0882926,47.762126 L15.0827262,48.1299476 L16.5779392,48.1515081 L17.9262857,49.6654844 L16.9448916,49.3481143 L16.7320849,48.8552419 L16.6764212,48.8793896 L16.8678187,49.3235353 L16.208846,49.1105179 L16.190006,49.1682999 L16.8506914,49.3821798 L16.4447745,49.6305565 L16.4768882,49.6827328 L16.9273361,49.4067588 L17.898882,49.7206792 L15.9330965,50.1376587 L14.7144893,49.2661845 L14.502539,49.5667375 L15.4458249,50.241149 L14.5924573,50.422257 L14.6678174,50.7827481 L15.521185,50.6016401 L14.9285805,51.602046 L15.2424382,51.7904845 L16.0080284,50.4981498 L17.9802367,50.0798767 L17.218072,50.7758487 L16.6875539,50.7159106 L16.680703,50.7767111 L17.1585546,50.8306123 L16.6443075,51.2997682 L16.685413,51.3450451 L17.1996601,50.8754581 L17.2107929,51.3536693 L17.2715948,51.3519445 L17.2596057,50.8206945 L18.0183449,50.1277409 L17.3931986,52.0535222 L16.0345757,52.6800695 L16.1865805,53.0151193 L17.2386247,52.5300087 L16.9680134,53.3639677 L17.3156976,53.4786694 L17.5863089,52.6442792 L18.1502251,53.6615022 L18.4696492,53.4821191 L17.7408827,52.1677927 L18.3664573,50.2420114 L18.5835458,51.2514727 L18.2658344,51.6848382 L18.3146472,51.7210598 L18.600673,51.3312464 L18.7471114,52.0134198 L18.8062006,52.0009147 L18.6597622,51.3187414 L19.0755274,51.5472824 L19.1046438,51.4933812 L18.6426349,51.2393988 L18.4246901,50.2247631 L19.7713238,51.7361521 L19.6317363,53.2354673 L19.9956914,53.269964 L20.1035934,52.1100107 L20.6863497,52.763293 L20.9586737,52.5175036 L20.3759174,51.8637901 L21.5328663,51.8810385 L21.5384327,51.5132168 L20.044076,51.4907939 L18.6961577,49.9781113 L19.6766955,50.2950502 L19.8715185,50.751701 L19.9276104,50.7275532 L19.7537683,50.3196291 L20.4131693,50.5326466 L20.4320093,50.4748645 L19.7713238,50.2609846 L20.1699617,50.0160577 L20.137848,49.9638813 L19.6946792,50.2364057 L18.7222769,49.922054 L20.6884906,49.5055057 L20.6884906,49.5055057 Z M42.5686129,54.822318 L43.1646428,55.0150686 L43.4369669,54.8473281 L43.4566633,54.8796688 L43.2113147,55.0301609 L43.6172317,55.1612486 L43.6052426,55.197039 L43.2014665,55.0663825 L43.308084,55.3160528 L43.2738294,55.3311451 L43.1543665,55.0512902 L42.5527701,54.8568147 L43.3791622,55.783915 L44.2959008,55.7972825 L44.2924754,56.0232362 L43.5825489,56.0128872 L43.939653,56.413912 L43.7730901,56.5648353 L43.4164141,56.1638105 L43.3496176,56.8748749 L43.1265346,56.8537456 L43.2121711,55.9348383 L42.3866354,55.0081692 L42.5202283,55.629542 L42.8032569,55.7856398 L42.7852732,55.818843 L42.5305047,55.6778375 L42.620423,56.0969731 L42.5840275,56.1047348 L42.4941091,55.6864617 L42.3189825,55.9249205 L42.2890098,55.9029288 L42.4834046,55.6373038 L42.350668,55.0189495 L41.9678729,56.1991697 L42.4144672,57.0051001 L42.2183597,57.1150585 L41.8728164,56.4915297 L41.7066817,57.0025129 L41.4934468,56.9326569 L41.6595816,56.4208113 L41.0147388,56.7187771 L40.9213951,56.5135214 L41.7546381,56.1284513 L42.1378614,54.9482311 L41.6719989,55.3738348 L41.6797062,55.6989668 L41.6424543,55.6998292 L41.6356034,55.407038 L41.3204611,55.6946547 L41.2956265,55.6670573 L41.6099124,55.3798718 L41.3174638,55.3470999 L41.3217456,55.3091534 L41.6471643,55.3462374 L42.1147395,54.9184777 L40.9051241,55.1750473 L40.435408,55.9676102 L40.2431541,55.8520461 L40.6062528,55.2388663 L40.0838702,55.3492559 L40.0376265,55.1289079 L40.5604373,55.0176559 L39.9819628,54.604126 L40.1117021,54.4199996 L40.8588804,54.9542681 L42.0637858,54.6989921 L41.468184,54.5062415 L41.1920064,54.6757068 L41.1731663,54.6429349 L41.421084,54.4911491 L41.0164516,54.3600615 L41.0280125,54.3242711 L41.4317885,54.4549276 L41.3148947,54.1832656 L41.3491493,54.1686045 L41.4793168,54.4700199 L42.0804849,54.6644953 L41.254521,53.7369639 L40.3377824,53.7235964 L40.3412079,53.4976426 L41.050278,53.5084229 L40.693602,53.1073981 L40.8605932,52.956906 L41.2172691,53.3574996 L41.2836374,52.6464352 L41.5071486,52.6679957 L41.4215122,53.5864718 L42.2406251,54.5062415 L42.1096013,53.8947865 L41.82957,53.7417072 L41.8475537,53.7089352 L42.0988968,53.846491 L42.0094066,53.4282179 L42.0458021,53.4200249 L42.1357205,53.8382981 L42.2962889,53.6201061 L42.3266898,53.6420978 L42.1455686,53.8874559 L42.2800179,54.5109848 L42.6658103,53.3221404 L42.219216,52.51621 L42.4148954,52.4062516 L42.7608668,53.0297804 L42.9265734,52.5187972 L43.1393801,52.5886531 L42.9736735,53.1004987 L43.6185162,52.802533 L43.71186,53.0082199 L42.8790452,53.3919963 L42.4966782,54.5696293 L42.9578307,54.1479064 L42.9501234,53.8275178 L42.9878035,53.8266554 L42.9946544,54.1147033 L43.3097967,53.8266554 L43.3346313,53.8551152 L43.0199172,54.1427319 L43.2888157,54.1746414 L43.2841057,54.2117254 L42.9830935,54.1763663 L42.5159465,54.6028324 L43.7281309,54.3454004 L44.197847,53.5532686 L44.390101,53.669264 L44.0270023,54.2824438 L44.5493848,54.1711917 L44.5960567,54.3924022 L44.0728178,54.5027918 L44.6512922,54.9163216 L44.521553,55.1008793 L43.7743746,54.5666108 L42.5686129,54.822318 L42.5686129,54.822318 Z M29.204611,57.4552828 L29.3343503,57.2707251 L28.756304,56.8571953 L29.2791147,56.7468057 L29.232871,56.5255952 L28.7100603,56.6368473 L29.0735872,56.0236675 L28.8813333,55.9076721 L28.4116171,56.6998038 L27.1994327,56.9572359 L27.6665797,56.5307697 L27.9675919,56.5661289 L27.9718738,56.5290449 L27.7029752,56.4971354 L28.0181175,56.2095187 L27.9928547,56.1810589 L27.6781406,56.4691068 L27.6708615,56.1810589 L27.6331815,56.1819213 L27.6413169,56.5023099 L27.1801644,56.9240327 L27.5621032,55.7463998 L28.3953462,55.3626234 L28.3020024,55.1569365 L27.6567315,55.454471 L27.8228663,54.9430566 L27.6100596,54.8732007 L27.4439248,55.3841839 L27.0979534,54.760655 L26.9022741,54.8706134 L27.3488683,55.6765439 L26.963076,56.8653883 L26.8290549,56.2418594 L27.0097478,55.9965013 L26.9797751,55.9745096 L26.8187785,56.1927015 L26.7288602,55.7744284 L26.6924647,55.7826214 L26.7819548,56.2008945 L26.5306117,56.0633387 L26.512628,56.0961106 L26.7926593,56.24919 L26.9236832,56.860645 L26.1045702,55.940444 L26.1902067,55.0223992 L25.9671236,55.0008387 L25.9007553,55.711903 L25.5436512,55.3113095 L25.3770882,55.4618016 L25.7337642,55.8628263 L25.0246941,55.8520461 L25.0212686,56.0779998 L25.937579,56.0913673 L26.7635429,57.0188988 L26.162803,56.8244234 L26.0322073,56.523008 L25.9979528,56.5376691 L26.1152747,56.809331 L25.7110705,56.6786746 L25.6999378,56.714465 L26.104142,56.8455526 L25.8562244,56.9973383 L25.8754926,57.0301103 L26.1516702,56.860645 L26.7468438,57.0533956 L25.5423666,57.3086716 L24.7951883,56.7744031 L24.665449,56.9585295 L25.2434953,57.3720593 L24.7211127,57.4833114 L24.7669283,57.7036594 L25.289739,57.5932698 L24.9262121,58.2064496 L25.118466,58.3220137 L25.5881822,57.5294508 L26.7977975,57.2728812 L26.3302223,57.7006409 L26.0052319,57.6635569 L26.00095,57.7010721 L26.2929704,57.7342753 L25.9786845,58.0214607 L26.0039473,58.0490581 L26.3186614,57.7614415 L26.3259405,58.0542327 L26.3631924,58.0533702 L26.3554851,57.7282383 L26.8213476,57.3026346 L26.4376961,58.4828548 L25.6044531,58.8679248 L25.6982251,59.0731805 L26.3430678,58.7752148 L26.176933,59.2870604 L26.3897397,59.3569163 L26.5563026,58.8459332 L26.9014177,59.469462 L27.0975252,59.3595036 L26.650931,58.5535732 L27.0341542,57.373353 L27.1668908,57.9917073 L26.9720678,58.2573323 L27.0024687,58.279324 L27.1775954,58.0408652 L27.2675137,58.4591383 L27.3039092,58.4513765 L27.2139909,58.032241 L27.4687594,58.1732465 L27.4867431,58.1400433 L27.2037145,57.9839455 L27.0701216,57.3625727 L27.8956573,58.2892418 L27.8095926,59.2081491 L28.0331039,59.2292783 L28.0994721,58.518214 L28.4561481,58.9192388 L28.6231392,58.7683155 L28.2660351,58.3672907 L28.9755334,58.3776397 L28.9789588,58.151686 L28.0622203,58.1383185 L27.2362563,57.2112182 L27.8374245,57.4056937 L27.9568874,57.6855486 L27.991142,57.6704563 L27.8845246,57.420786 L28.2887288,57.5514425 L28.3002897,57.5156521 L27.8948009,57.3845644 L28.1397213,57.2340723 L28.1200249,57.2017316 L27.8477009,57.3694721 L27.2520991,57.1767215 L28.4574326,56.9210143 L29.204611,57.4552828 L29.204611,57.4552828 Z"/>
</svg>
